<svg width="184" height="40" viewBox="0 0 184 40" fill="none" xmlns="http://www.w3.org/2000/svg">
<circle cx="20" cy="20" r="20" fill="#00B307"/>
<g clip-path="url(#clip0_2337_14677)">
<path d="M22.9976 13.9887H24.6409V11.1267C24.3574 11.0878 23.3824 11 22.2469 11C19.8776 11 18.2546 12.4902 18.2546 15.2292V17.75H15.6401V20.9495H18.2546V29H21.4601V20.9503H23.9689L24.3671 17.7508H21.4594V15.5465C21.4601 14.6217 21.7091 13.9887 22.9976 13.9887Z" fill="white"/>
</g>
<g clip-path="url(#clip1_2337_14677)">
<path d="M77 14.4189C76.3306 14.7125 75.6174 14.9071 74.8737 15.0016C75.6388 14.5449 76.2226 13.8271 76.4971 12.962C75.7839 13.3873 74.9964 13.6876 74.1571 13.8553C73.4799 13.1341 72.5146 12.6875 71.4616 12.6875C69.4186 12.6875 67.7739 14.3458 67.7739 16.3786C67.7739 16.6711 67.7986 16.9524 67.8594 17.2201C64.7915 17.0705 62.0769 15.6001 60.2533 13.3603C59.9349 13.9126 59.7481 14.5449 59.7481 15.2255C59.7481 16.5035 60.4062 17.6364 61.3872 18.2923C60.7944 18.281 60.2127 18.1089 59.72 17.8378C59.72 17.849 59.72 17.8636 59.72 17.8783C59.72 19.6715 60.9991 21.161 62.6765 21.5041C62.3761 21.5863 62.0487 21.6256 61.709 21.6256C61.4727 21.6256 61.2342 21.6121 61.0104 21.5626C61.4885 23.024 62.8453 24.0984 64.4585 24.1333C63.203 25.1154 61.6089 25.7071 59.8831 25.7071C59.5805 25.7071 59.2902 25.6936 59 25.6565C60.6346 26.7106 62.5719 27.3125 64.661 27.3125C71.4515 27.3125 75.164 21.6875 75.164 16.8118C75.164 16.6486 75.1584 16.4911 75.1505 16.3348C75.8829 15.815 76.4982 15.1659 77 14.4189Z" fill="#96B397"/>
</g>
<path d="M116.244 11C111.311 11 108.688 14.1614 108.688 17.6085C108.688 19.2072 109.581 21.2008 111.011 21.8331C111.228 21.931 111.346 21.8894 111.394 21.688C111.437 21.535 111.625 20.7981 111.716 20.4504C111.744 20.339 111.73 20.2423 111.64 20.1377C111.165 19.5886 110.788 18.5885 110.788 17.6502C110.788 15.2459 112.699 12.9115 115.952 12.9115C118.765 12.9115 120.732 14.7385 120.732 17.352C120.732 20.3053 119.17 22.3484 117.139 22.3484C116.015 22.3484 115.178 21.4663 115.443 20.375C115.764 19.0756 116.393 17.6783 116.393 16.7411C116.393 15.9007 115.918 15.2054 114.948 15.2054C113.804 15.2054 112.876 16.3384 112.876 17.8594C112.876 18.8259 113.218 19.4784 113.218 19.4784C113.218 19.4784 112.086 24.0506 111.876 24.9045C111.52 26.3502 111.924 28.6914 111.959 28.8928C111.981 29.0042 112.105 29.0391 112.175 28.9479C112.287 28.8017 113.655 26.8497 114.038 25.4389C114.178 24.9248 114.75 22.84 114.75 22.84C115.127 23.5207 116.215 24.0911 117.374 24.0911C120.821 24.0911 123.312 21.0613 123.312 17.3014C123.3 13.6967 120.215 11 116.244 11Z" fill="#96B397"/>
<g clip-path="url(#clip2_2337_14677)">
<path d="M172.982 16.292C172.94 15.3356 172.786 14.6781 172.564 14.1084C172.336 13.5036 171.984 12.9621 171.523 12.512C171.073 12.0549 170.528 11.6997 169.93 11.4747C169.357 11.2531 168.703 11.0985 167.747 11.0563C166.783 11.0106 166.477 11 164.033 11C161.59 11 161.284 11.0106 160.324 11.0527C159.367 11.0949 158.71 11.2497 158.14 11.4711C157.535 11.6997 156.994 12.0513 156.544 12.512C156.087 12.9621 155.732 13.5072 155.506 14.1049C155.285 14.6781 155.13 15.3321 155.088 16.2885C155.042 17.252 155.032 17.5579 155.032 20.0018C155.032 22.4456 155.042 22.7515 155.084 23.7115C155.127 24.6679 155.281 25.3254 155.503 25.8952C155.732 26.4999 156.087 27.0414 156.544 27.4915C156.994 27.9486 157.539 28.3038 158.137 28.5288C158.71 28.7504 159.364 28.905 160.32 28.9472C161.28 28.9895 161.586 28.9999 164.03 28.9999C166.474 28.9999 166.78 28.9895 167.74 28.9472C168.696 28.905 169.354 28.7504 169.923 28.5288C171.133 28.0611 172.089 27.1047 172.557 25.8952C172.779 25.322 172.933 24.6679 172.975 23.7115C173.018 22.7515 173.028 22.4456 173.028 20.0018C173.028 17.5579 173.025 17.252 172.982 16.292ZM171.362 23.6411C171.323 24.5202 171.175 24.9949 171.052 25.3114C170.75 26.0956 170.127 26.7179 169.343 27.0204C169.027 27.1434 168.549 27.2911 167.673 27.3297C166.723 27.372 166.439 27.3824 164.037 27.3824C161.635 27.3824 161.347 27.372 160.401 27.3297C159.522 27.2911 159.047 27.1434 158.731 27.0204C158.341 26.8761 157.985 26.6476 157.697 26.3487C157.398 26.0568 157.17 25.7052 157.025 25.315C156.902 24.9985 156.755 24.5202 156.716 23.6447C156.674 22.6953 156.663 22.4104 156.663 20.0088C156.663 17.6071 156.674 17.3188 156.716 16.373C156.755 15.4939 156.902 15.0192 157.025 14.7027C157.17 14.3123 157.398 13.9573 157.701 13.6688C157.992 13.3699 158.344 13.1414 158.734 12.9973C159.051 12.8742 159.529 12.7266 160.405 12.6878C161.354 12.6457 161.639 12.6351 164.04 12.6351C166.446 12.6351 166.73 12.6457 167.676 12.6878C168.556 12.7266 169.03 12.8742 169.347 12.9973C169.737 13.1414 170.092 13.3699 170.38 13.6688C170.679 13.9607 170.908 14.3123 171.052 14.7027C171.175 15.0192 171.323 15.4973 171.362 16.373C171.404 17.3224 171.414 17.6071 171.414 20.0088C171.414 22.4104 171.404 22.6917 171.362 23.6411Z" fill="#96B397"/>
<path d="M164.033 15.3779C161.48 15.3779 159.409 17.449 159.409 20.0019C159.409 22.5548 161.48 24.6258 164.033 24.6258C166.586 24.6258 168.657 22.5548 168.657 20.0019C168.657 17.449 166.586 15.3779 164.033 15.3779ZM164.033 23.0013C162.377 23.0013 161.034 21.6581 161.034 20.0019C161.034 18.3456 162.377 17.0024 164.033 17.0024C165.689 17.0024 167.033 18.3456 167.033 20.0019C167.033 21.6581 165.689 23.0013 164.033 23.0013Z" fill="#96B397"/>
<path d="M169.92 15.1952C169.92 15.7913 169.436 16.2747 168.84 16.2747C168.244 16.2747 167.761 15.7913 167.761 15.1952C167.761 14.5989 168.244 14.1157 168.84 14.1157C169.436 14.1157 169.92 14.5989 169.92 15.1952Z" fill="#96B397"/>
</g>
<defs>
<clipPath id="clip0_2337_14677">
<rect width="18" height="18" fill="white" transform="translate(11 11)"/>
</clipPath>
<clipPath id="clip1_2337_14677">
<rect width="18" height="18" fill="white" transform="translate(59 11)"/>
</clipPath>
<clipPath id="clip2_2337_14677">
<rect width="18" height="18" fill="white" transform="translate(155 11)"/>
</clipPath>
</defs>
</svg>
